name C:\Users\u0101727\Documents\MyRepositories\upper-imu-dc\Results\main_tracking\Case_42\FLX01_angularVelocities_groundFrame.mot
datacolumns 4
datarows 94
range 3.51000000 4.44000000
endheader 
time	radius_imu_x	radius_imu_y	radius_imu_z	
          3.51000000	          0.00516093	         -0.08169396	         -0.06914021	
          3.52000000	          0.00714554	         -0.07878810	         -0.07133041	
          3.53000000	          0.00914223	         -0.07594151	         -0.07340875	
          3.54000000	          0.01109876	         -0.07330841	         -0.07545158	
          3.55000000	          0.01297120	         -0.07101404	         -0.07753573	
          3.56000000	          0.01473054	         -0.06912547	         -0.07973288	
          3.57000000	          0.01636758	         -0.06762929	         -0.08210451	
          3.58000000	          0.01789516	         -0.06641989	         -0.08469832	
          3.59000000	          0.01934754	         -0.06530043	         -0.08754673	
          3.60000000	          0.02077698	         -0.06399651	         -0.09066814	
          3.61000000	          0.02224822	         -0.06218094	         -0.09407072	
          3.62000000	          0.02383167	         -0.05950557	         -0.09775798	
          3.63000000	          0.02559646	         -0.05563437	         -0.10173471	
          3.64000000	          0.02760415	         -0.05027265	         -0.10601195	
          3.65000000	          0.02990357	         -0.04318888	         -0.11061013	
          3.66000000	          0.03252720	         -0.03422786	         -0.11556001	
          3.67000000	          0.03548889	         -0.02331601	         -0.12090175	
          3.68000000	          0.03878275	         -0.01046098	         -0.12668275	
          3.69000000	          0.04238299	          0.00425254	         -0.13295509	
          3.70000000	          0.04624456	          0.02067011	         -0.13977265	
          3.71000000	          0.05030476	          0.03857736	         -0.14718839	
          3.72000000	          0.05448569	          0.05771046	         -0.15525216	
          3.73000000	          0.05869743	          0.07776643	         -0.16400927	
          3.74000000	          0.06284176	          0.09841429	         -0.17349954	
          3.75000000	          0.06681642	          0.11930993	         -0.18375570	
          3.76000000	          0.07051994	          0.14011637	         -0.19480067	
          3.77000000	          0.07385698	          0.16052660	         -0.20664473	
          3.78000000	          0.07674347	          0.18028356	         -0.21928428	
          3.79000000	          0.07911079	          0.19919105	         -0.23270380	
          3.80000000	          0.08090870	          0.21711475	         -0.24688076	
          3.81000000	          0.08210708	          0.23397648	         -0.26179138	
          3.82000000	          0.08269720	          0.24974710	         -0.27741504	
          3.83000000	          0.08269273	          0.26444220	         -0.29373595	
          3.84000000	          0.08213075	          0.27812142	         -0.31074200	
          3.85000000	          0.08107174	          0.29088818	         -0.32842194	
          3.86000000	          0.07959738	          0.30288503	         -0.34676244	
          3.87000000	          0.07780586	          0.31428255	         -0.36574596	
          3.88000000	          0.07580559	          0.32526383	         -0.38534963	
          3.89000000	          0.07370852	          0.33600831	         -0.40554500	
          3.90000000	          0.07162426	          0.34667771	         -0.42629854	
          3.91000000	          0.06965587	          0.35740721	         -0.44757212	
          3.92000000	          0.06789827	          0.36830434	         -0.46932284	
          3.93000000	          0.06643925	          0.37945587	         -0.49150195	
          3.94000000	          0.06536236	          0.39093857	         -0.51405396	
          3.95000000	          0.06474990	          0.40282771	         -0.53691697	
          3.96000000	          0.06468430	          0.41519845	         -0.56002486	
          3.97000000	          0.06524716	          0.42811800	         -0.58331101	
          3.98000000	          0.06651585	          0.44162992	         -0.60671320	
          3.99000000	          0.06855836	          0.45573495	         -0.63017879	
          4.00000000	          0.07142817	          0.47037558	         -0.65366845	
          4.01000000	          0.07516066	          0.48543032	         -0.67715714	
          4.02000000	          0.07977242	          0.50072065	         -0.70063164	
          4.03000000	          0.08526417	          0.51603006	         -0.72408517	
          4.04000000	          0.09162710	          0.53113248	         -0.74750974	
          4.05000000	          0.09885227	          0.54582690	         -0.77088708	
          4.06000000	          0.10694213	          0.55997386	         -0.79417933	
          4.07000000	          0.11592259	          0.57352714	         -0.81732145	
          4.08000000	          0.12585265	          0.58655278	         -0.84021781	
          4.09000000	          0.13682918	          0.59922929	         -0.86274452	
          4.10000000	          0.14898474	          0.61182729	         -0.88475784	
          4.11000000	          0.16247772	          0.62467087	         -0.90610730	
          4.12000000	          0.17747546	          0.63808715	         -0.92665096	
          4.13000000	          0.19413286	          0.65235350	         -0.94626987	
          4.14000000	          0.21257073	          0.66765316	         -0.96487868	
          4.15000000	          0.23285711	          0.68404535	         -0.98243155	
          4.16000000	          0.25499212	          0.70144913	         -0.99892374	
          4.17000000	          0.27889472	          0.71963573	         -1.01439073	
          4.18000000	          0.30438961	          0.73822498	         -1.02890606	
          4.19000000	          0.33119584	          0.75668794	         -1.04257807	
          4.20000000	          0.35892174	          0.77436216	         -1.05554452	
          4.21000000	          0.38707065	          0.79048462	         -1.06796479	
          4.22000000	          0.41505935	          0.80424119	         -1.08001019	
          4.23000000	          0.44224832	          0.81482747	         -1.09185367	
          4.24000000	          0.46798331	          0.82151634	         -1.10365990	
          4.25000000	          0.49164903	          0.82373108	         -1.11557540	
          4.26000000	          0.51273482	          0.82112148	         -1.12771840	
          4.27000000	          0.53090406	          0.81363111	         -1.14016910	
          4.28000000	          0.54604997	          0.80153334	         -1.15296304	
          4.29000000	          0.55832143	          0.78542021	         -1.16608983	
          4.30000000	          0.56811735	          0.76615037	         -1.17949689	
          4.31000000	          0.57605993	          0.74477679	         -1.19309576	
          4.32000000	          0.58295267	          0.72246541	         -1.20677012	
          4.33000000	          0.58971621	          0.70039883	         -1.22038687	
          4.34000000	          0.59729337	          0.67965859	         -1.23381185	
          4.35000000	          0.60653157	          0.66110048	         -1.24692806	
          4.36000000	          0.61807041	          0.64525593	         -1.25965112	
          4.37000000	          0.63226598	          0.63228996	         -1.27193747	
          4.38000000	          0.64917107	          0.62202561	         -1.28378412	
          4.39000000	          0.66857259	          0.61402425	         -1.29522127	
          4.40000000	          0.69007192	          0.60769677	         -1.30630138	
          4.41000000	          0.71318021	          0.60241239	         -1.31708881	
          4.42000000	          0.73739174	          0.59757055	         -1.32765478	
          4.43000000	          0.76220719	          0.59261715	         -1.33808007	
          4.44000000	          0.78711068	          0.58701946	         -1.34846264	
